<?xml version="1.0" encoding="UTF-8" standalone="no"?>
<svg
   xmlns:dc="http://purl.org/dc/elements/1.1/"
   xmlns:cc="http://creativecommons.org/ns#"
   xmlns:rdf="http://www.w3.org/1999/02/22-rdf-syntax-ns#"
   xmlns:svg="http://www.w3.org/2000/svg"
   xmlns="http://www.w3.org/2000/svg"
   xml:space="preserve"
   enable-background="new 0 0 15 15"
   viewBox="0 0 15 15"
   height="15px"
   width="15px"
   y="0px"
   x="0px"
   id="Layer_1"
   version="1.1"><metadata
   id="metadata11"><rdf:RDF><cc:Work
       rdf:about=""><dc:format>image/svg+xml</dc:format><dc:type
         rdf:resource="http://purl.org/dc/dcmitype/StillImage" /><dc:title></dc:title></cc:Work></rdf:RDF></metadata><defs
   id="defs9" />
<g
   style="fill:#007fff;fill-opacity:1"
   id="g4">
	<path
   style="fill:#007fff;fill-opacity:1"
   id="path2"
   d="M 12.385,5.578 7.65,10.313 6.76,11.201 c -0.119,0.119 -0.281,0.184 -0.444,0.184 -0.162,0 -0.328,-0.064 -0.445,-0.184 L 4.981,10.313 2.615,7.944 C 2.497,7.828 2.432,7.664 2.432,7.5 2.432,7.337 2.497,7.175 2.615,7.056 l 0.89,-0.89 C 3.623,6.049 3.786,5.983 3.949,5.983 c 0.164,0 0.327,0.065 0.445,0.183 l 1.923,1.929 4.289,-4.296 c 0.119,-0.118 0.282,-0.183 0.445,-0.183 0.164,0 0.327,0.065 0.445,0.183 l 0.889,0.89 c 0.118,0.118 0.184,0.281 0.184,0.445 -0.001,0.162 -0.066,0.326 -0.184,0.444 z"
   fill="#666766" />
</g>
</svg>
