<?xml version="1.0" encoding="UTF-8" standalone="no"?>
<svg
   xmlns:dc="http://purl.org/dc/elements/1.1/"
   xmlns:cc="http://creativecommons.org/ns#"
   xmlns:rdf="http://www.w3.org/1999/02/22-rdf-syntax-ns#"
   xmlns:svg="http://www.w3.org/2000/svg"
   xmlns="http://www.w3.org/2000/svg"
   xmlns:sodipodi="http://sodipodi.sourceforge.net/DTD/sodipodi-0.dtd"
   xmlns:inkscape="http://www.inkscape.org/namespaces/inkscape"
   version="1.1"
   width="600px"
   height="600px"
   xlink="http://www.w3.org/1999/xlink"
   style="overflow:hidden!important;"
   id="svg179"
   sodipodi:docname="user_picture.svg"
   inkscape:version="0.92.0 r15299">
  <metadata
     id="metadata183">
    <rdf:RDF>
      <cc:Work
         rdf:about="">
        <dc:format>image/svg+xml</dc:format>
        <dc:type
           rdf:resource="http://purl.org/dc/dcmitype/StillImage" />
        <dc:title></dc:title>
      </cc:Work>
    </rdf:RDF>
  </metadata>
  <sodipodi:namedview
     pagecolor="#ffffff"
     bordercolor="#666666"
     borderopacity="1"
     objecttolerance="10"
     gridtolerance="10"
     guidetolerance="10"
     inkscape:pageopacity="0"
     inkscape:pageshadow="2"
     inkscape:window-width="1776"
     inkscape:window-height="1087"
     id="namedview181"
     showgrid="false"
     inkscape:zoom="0.39333333"
     inkscape:cx="300"
     inkscape:cy="300"
     inkscape:window-x="0"
     inkscape:window-y="0"
     inkscape:window-maximized="0"
     inkscape:current-layer="svg179" />
  <g
     style="filter:url(#filter4674)"
     id="svga-group-backs-single"
     transform="scale(3)" />
  <g
     style="filter:url(#filter4674)"
     id="svga-group-hair-back"
     transform="matrix(2.5499984,0,0,2.5499984,44.028828,52.135383)">
    <path
       id="SvgjsPath2902"
       d="m 100.5,100.5 h -1 v -1 h 1 z"
       stroke-width="none"
       inkscape:connector-curvature="0"
       style="opacity:1;fill:#2a232b" />
  </g>
  <g
     style="filter:url(#filter4674)"
     id="svga-group-humanbody-single"
     transform="matrix(2.5499984,0,0,2.5499984,44.028828,52.135383)">
    <path
       id="SvgjsPath2893"
       d="m 195.417,199.778 c -2.196,-4.746 -8.195,-11.779 -14.86,-13.722 -8.239,-2.403 -26.837,-5.308 -33.733,-6.923 -5.528,-1.296 -16.662,-11.294 -20.564,-14.65 -0.7,-0.6 -1.273,-1.839 -1.287,-2.76 -0.139,-10.864 4.195,-39.724 4.195,-39.724 H 100 70.833 c 0,0 4.334,28.859 4.193,39.724 -0.011,0.921 -0.587,2.16 -1.285,2.76 -3.902,3.356 -15.036,13.354 -20.564,14.65 -6.897,1.615 -25.495,4.619 -33.733,7.022 -6.667,1.942 -12.664,8.876 -14.86,13.622 -3.708,8.008 -4.584,22.5 -4.584,35 h 100 100 c 0,-12.499 -0.877,-26.991 -4.583,-34.999 z"
       stroke-width="none"
       inkscape:connector-curvature="0"
       style="opacity:1;fill:#f0c7b1;stroke:none" />
    <path
       id="SvgjsPath2894"
       d="m 159.156,184.058 c 24.342,3.542 34.586,8.708 37.794,50.721 H 200 c 0,-12.5 -0.877,-26.992 -4.583,-35 -2.196,-4.746 -8.195,-11.779 -14.86,-13.722 -8.239,-2.403 -26.837,-5.308 -33.733,-6.923 -5.528,-1.296 -18.242,-12.069 -21.643,-16.35 3.36,4.704 12.791,15.605 21.054,18.46 3.953,1.366 7.245,1.988 12.921,2.814 z m -105.39,-2.814 c 8.263,-2.854 17.693,-13.756 21.054,-18.46 -3.4,4.28 -16.114,15.054 -21.643,16.35 -6.896,1.615 -25.494,4.619 -33.733,7.022 -6.665,1.942 -12.664,8.876 -14.86,13.622 -3.706,8.008 -4.583,22.5 -4.583,35 h 3.05 c 3.188,-41.744 13.475,-47.183 37.794,-50.721 5.675,-0.825 8.968,-1.447 12.921,-2.813 z"
       stroke-width="none"
       inkscape:connector-curvature="0"
       style="opacity:1;fill:#ffe4d6;stroke:none" />
    <path
       id="SvgjsPath2895"
       d="m 95.646,197.62 c 0,0 -5.074,-1.609 -7.083,-2.379 -10.449,-4.009 -44.395,-6.607 -44.395,-6.607 0,0 35.754,1.419 43.644,2.779 -0.458,-4.767 -3.017,-20.004 -3.017,-20.004 0,0 5.149,16.815 6.409,21.057 0.674,2.268 4.442,5.154 4.442,5.154 z m 10.799,-1.342 c -0.089,0.073 -0.191,0.168 -0.302,0.268 0.113,-0.085 0.215,-0.174 0.302,-0.268 z m -10.799,1.342 c 0,0 2.893,2.992 4.347,3.03 1.91,0.051 4.828,-2.899 6.151,-4.104 -1.265,0.957 -4.159,1.391 -5.31,1.436 -1.33,0.051 -5.188,-0.362 -5.188,-0.362 z m 21.018,-7.519 c -1.545,0.248 -4.386,0.789 -4.386,0.789 L 114.565,176 c -0.646,3.071 -4.474,16.211 -8.12,20.278 1.91,-1.616 6.158,-2.391 8.324,-2.704 10.236,-1.484 10.232,-1.483 41.062,-4.94 0,0 -29.071,-0.155 -39.167,1.467 z"
       stroke-width="none"
       inkscape:connector-curvature="0"
       style="opacity:1;fill:#e1ac8f;stroke:none" />
    <path
       id="SvgjsPath2896"
       d="m 195.417,199.778 c -2.196,-4.746 -8.195,-11.779 -14.86,-13.722 -8.239,-2.403 -26.837,-5.308 -33.733,-6.923 -5.528,-1.296 -16.662,-11.294 -20.564,-14.65 -0.7,-0.6 -1.273,-1.839 -1.287,-2.76 -0.139,-10.864 4.195,-39.724 4.195,-39.724 H 100 70.833 c 0,0 4.334,28.859 4.193,39.724 -0.011,0.921 -0.587,2.16 -1.285,2.76 -3.902,3.356 -15.036,13.354 -20.564,14.65 -6.897,1.615 -25.495,4.619 -33.733,7.022 -6.667,1.942 -12.664,8.876 -14.86,13.622 -3.708,8.008 -4.584,22.5 -4.584,35 h 100 100 c 0,-12.499 -0.877,-26.991 -4.583,-34.999 z"
       inkscape:connector-curvature="0"
       style="opacity:1;fill:none;stroke:#c27b55;stroke-width:1.5" />
  </g>
  <g
     style="filter:url(#filter4674)"
     id="svga-group-chinshadow-single"
     transform="matrix(2.5499984,0,0,2.5499984,44.028828,52.135383)">
    <path
       id="SvgjsPath3043"
       d="m 100.021,171.866 c 8.183,0 16.871,-4.943 24.199,-10.675 -0.001,-6.702 1.451,-19.105 2.652,-28.205 -15.382,-2.247 -38.406,-2.279 -53.766,-0.152 1.184,8.96 2.625,21.206 2.671,28.02 7.342,5.913 16.045,11.012 24.244,11.012 z"
       style="opacity:1;fill:url(#SvgjsLinearGradient3044)"
       inkscape:connector-curvature="0" />
  </g>
  <g
     style="filter:url(#filter4674)"
     id="svga-group-clothes-single"
     transform="matrix(2.5499984,0,0,2.5499984,44.028828,52.135383)">
    <path
       id="SvgjsPath2898"
       d="m 111.806,235.888 c -19.135,0 -41.455,-0.074 -68.233,-0.229 L 19.894,235.531 C 5.596,235.453 4.753,235.437 3.007,235.437 l -4.899,0.007 c -4.571,-41.875 14.41,-52.87 43.762,-56.708 7.789,-1.097 15.449,-3.097 21.459,-6.972 16.327,22.243 64.811,17.562 73.103,-0.629 1.39,0.53 2.539,1.215 3.977,1.734 4.666,3.433 11.072,5.836 17.628,6.199 26.008,1.441 44.419,12.996 44.057,54.64 0.003,0.165 0.004,1.175 -0.013,1.49 -12.513,0 -17.206,0.121 -27.034,0.262 -13.331,0.19 -29.923,0.427 -63.229,0.427 -0.005,0.001 -0.008,0.001 -0.012,0.001 z"
       stroke-width="none"
       inkscape:connector-curvature="0"
       style="opacity:1;fill:#386e77" />
    <path
       id="SvgjsPath2899"
       d="m 201.055,234.64 c -0.41,-7.385 -4.064,-28.058 -10.36,-37.541 -12.482,-18.805 -42.26,-12.206 -49.132,-19.693 -4.986,10.159 -24.975,16.595 -31.594,17.54 19.181,-6.36 27.237,-10.959 30.42,-21.87 6.405,8.33 41.074,1.971 54.717,24.331 3.995,6.547 7.794,27.386 5.949,37.233 z M 55.811,177.628 c 1.357,-0.315 2.034,-1.249 3.381,-1.614 l -1.426,-1.891 c -9.049,7.052 -42.909,2.645 -54.519,24.036 -3.659,6.741 -6.127,22.788 -4.192,36.439 0.537,-8.384 0.799,-26.314 7.095,-35.798 11.324,-17.06 31.974,-12.553 47.619,-19.775 6.983,8.6 17.888,12.828 28.984,14.577 C 68.832,189.971 60.85,183.84 55.811,177.628 Z"
       stroke-width="none"
       inkscape:connector-curvature="0"
       style="opacity:1;fill:#4d7e86" />
    <path
       id="SvgjsPath2900"
       d="m 135.31,173.244 c -5.532,11.514 -47.35,24.923 -70.93,0.879 -1.466,0.622 -5.852,2.112 -5.852,2.112 17.176,23.386 67.511,23.534 80.909,-0.114 -0.059,-0.023 -2.765,-2.185 -4.127,-2.877 z"
       stroke-width="none"
       inkscape:connector-curvature="0"
       style="opacity:1;fill:#265e68" />
    <path
       id="SvgjsPath2901"
       d="m 136.38,171.002 c -9.413,18.822 -58.397,21.485 -73.012,0.632 -5.337,1.578 -10.469,4.941 -15.636,5.782 -30.92,4.605 -53.778,6.919 -49.732,58.136 9.94,0 -6.611,-0.065 45.571,0.215 123.59,0.71 119.562,-0.461 158.606,-0.461 0.029,-0.14 0.015,-1.452 0.021,-1.596 2.096,-56.436 -30.852,-53.104 -53.12,-56.995 -3.144,-0.718 -6.066,-2.773 -8.635,-3.945 -1.419,-0.649 -2.625,-1.232 -4.063,-1.768 z m -73.366,1.263 c 12.974,23.392 64.219,18.699 74.113,0.101 1.2,0.504 1.507,0.704 2.898,1.197 -10.248,21.489 -60.942,28.337 -81.677,1.163 0.146,-0.041 3.204,-1.913 4.666,-2.461 z m -63.859,62.513 c -2.421,-26.431 1.797,-48.043 32.78,-53.345 10.276,-1.896 16.557,-1.962 25.384,-5.794 16.763,27.405 72.098,23.158 83.598,-1.305 1.652,1.409 4.228,3.03 7.405,3.785 18.098,4.299 54.838,-0.894 52.898,56.658 -54.057,-0.702 -98.865,-2.344 -202.065,0.001 z"
       stroke-width="none"
       inkscape:connector-curvature="0"
       style="opacity:1;fill:#0c4049" />
  </g>
  <g
     style="filter:url(#filter4674)"
     id="svga-group-ears-left"
     transform="matrix(2.5499984,0,0,2.5499984,44.028828,52.135383)">
    <path
       style="opacity:1;fill:#f0c7b1;stroke:#c27b55;stroke-width:1.5"
       inkscape:connector-curvature="0"
       d="M 45.671,84.344 C 44.186,81.882 39.344,75.145 35.64,76.09 c -3.012,0.772 -2.973,4.971 -3.206,7.455 -0.34,3.644 -0.464,9.992 0.525,12.568 0.951,2.473 3.96,7.252 5.828,9.075 2.299,2.235 5.97,9.358 6.422,10.097 0.711,1.168 2.137,2.84 4.325,2.708 3.071,-0.185 5.724,-3.087 5.965,-4.485 1.301,-7.59 -5.963,-22.758 -9.828,-29.164 z"
       id="SvgjsPath2906" />
    <path
       style="opacity:1;fill:#c27b55;stroke:none"
       inkscape:connector-curvature="0"
       stroke-width="none"
       d="m 44.2,99.341 c -0.143,-0.563 0.007,-1.513 0.154,-2.429 0.133,-0.835 0.258,-1.624 0.182,-2.182 -0.289,-2.09 -1.915,-6.06 -2.976,-8.212 -1.223,-2.476 -3.199,-5.595 -5.679,-6.399 -1.024,-0.333 -1.699,0.065 -2.089,0.468 -0.288,0.296 -0.353,0.645 -0.259,0.687 0.095,0.041 0.307,-0.248 0.617,-0.519 0.254,-0.222 -0.508,-0.04 0,0 -0.205,1.04 -0.865,6.302 -0.41,10.143 0.358,3.022 1.05,5.279 1.263,5.617 0.031,0.356 0.083,0.705 0.16,1.043 1.002,4.41 7.518,10.177 9.034,11.82 0.28,0.303 0.574,0.483 0.646,0.409 0.072,-0.074 -0.101,-0.373 -0.379,-0.678 -1.498,-1.632 -7.971,-7.381 -8.939,-11.635 -1.027,-4.514 3.912,-11.207 4.699,-12.623 0.401,0.665 0.742,1.303 1.004,1.835 0.207,0.417 0.434,0.906 0.67,1.435 -0.463,0.738 -5.118,6.127 -3.934,10.441 0.438,1.591 3.822,3.642 5.131,4.203 0.72,0.31 0.99,0.772 1.304,1.306 0.364,0.624 0.033,2.229 1.23,2.739 0.244,0.104 0.464,0.146 0.659,0.146 0.338,0 0.594,-0.13 0.783,-0.284 0.02,0.271 0.019,0.619 0.009,0.941 -0.012,0.418 0.047,0.609 0.148,0.617 0.103,0.009 0.21,-0.174 0.223,-0.587 0.017,-0.51 0.014,-1.141 -0.077,-1.444 -0.269,-0.889 -1.088,-1.894 -1.957,-2.957 -0.854,-1.045 -0.995,-3.029 -1.217,-3.901 z m -9.231,-3.909 c -2.348,-6.923 1.283,-13.229 1.81,-14.179 1.012,0.399 2.562,2.193 3.221,3.235 -0.48,0.833 -4.933,6.287 -5.031,10.944 z m 10.803,11.032 c -1.084,-0.462 -0.706,-1.984 -1.056,-2.584 -0.318,-0.542 -0.646,-1.102 -1.479,-1.46 -0.18,-0.078 -0.379,-0.196 -0.583,-0.332 -2.682,-6.075 0.293,-8.73 1.039,-9.273 0.229,0.742 0.399,1.423 0.476,1.97 0.068,0.5 -0.059,1.298 -0.181,2.068 -0.153,0.955 -0.31,1.944 -0.147,2.584 0.244,0.953 0.411,2.97 1.291,4.048 0.781,0.956 1.583,1.942 1.857,2.746 -0.118,0.16 -0.489,0.544 -1.217,0.233 z"
       id="SvgjsPath2907" />
  </g>
  <g
     style="filter:url(#filter4674)"
     id="svga-group-ears-right"
     transform="matrix(2.5499984,0,0,2.5499984,44.028828,52.135383)">
    <path
       style="opacity:1;fill:#f0c7b1;stroke:#c27b55;stroke-width:1.5"
       inkscape:connector-curvature="0"
       d="m 154.066,84.344 c 1.486,-2.462 6.328,-9.199 10.031,-8.254 3.012,0.772 2.973,4.971 3.207,7.455 0.34,3.644 0.463,9.992 -0.525,12.568 -0.951,2.473 -3.961,7.252 -5.828,9.075 -2.299,2.235 -5.971,9.358 -6.422,10.097 -0.711,1.168 -2.137,2.84 -4.326,2.708 -3.07,-0.185 -5.723,-3.087 -5.965,-4.485 -1.3,-7.59 5.965,-22.758 9.828,-29.164 z"
       id="SvgjsPath2908" />
    <path
       style="opacity:1;fill:#c27b55;stroke:none"
       inkscape:connector-curvature="0"
       stroke-width="none"
       d="m 154.322,103.243 c -0.869,1.063 -1.688,2.068 -1.957,2.957 -0.092,0.304 -0.094,0.935 -0.078,1.444 0.014,0.413 0.121,0.596 0.225,0.587 0.102,-0.008 0.16,-0.199 0.148,-0.617 -0.01,-0.322 -0.012,-0.67 0.008,-0.941 0.189,0.154 0.445,0.284 0.783,0.284 0.195,0 0.416,-0.042 0.66,-0.146 1.195,-0.511 0.865,-2.116 1.229,-2.739 0.314,-0.534 0.584,-0.997 1.305,-1.306 1.309,-0.561 4.693,-2.611 5.131,-4.203 1.184,-4.314 -3.471,-9.704 -3.934,-10.441 0.234,-0.529 0.463,-1.018 0.668,-1.435 0.264,-0.532 0.604,-1.171 1.006,-1.835 0.787,1.416 5.725,8.108 4.699,12.623 -0.969,4.254 -7.441,10.003 -8.939,11.635 -0.279,0.305 -0.453,0.604 -0.381,0.678 0.074,0.074 0.367,-0.106 0.646,-0.409 1.516,-1.643 8.031,-7.41 9.033,-11.82 0.078,-0.338 0.131,-0.687 0.162,-1.043 0.211,-0.337 0.904,-2.594 1.262,-5.617 0.455,-3.841 -0.205,-9.103 -0.41,-10.143 0.508,-0.04 -0.254,-0.222 0,0 0.311,0.271 0.523,0.56 0.617,0.519 0.094,-0.042 0.029,-0.39 -0.258,-0.687 -0.391,-0.403 -1.066,-0.801 -2.09,-0.468 -2.48,0.804 -4.457,3.923 -5.68,6.399 -1.061,2.152 -2.686,6.122 -2.975,8.212 -0.076,0.558 0.049,1.347 0.182,2.182 0.146,0.916 0.297,1.866 0.154,2.429 -0.222,0.871 -0.362,2.855 -1.216,3.901 z m 5.416,-18.755 c 0.66,-1.042 2.209,-2.835 3.221,-3.235 0.527,0.95 4.158,7.256 1.811,14.179 -0.098,-4.657 -4.551,-10.111 -5.032,-10.944 z m -6.988,21.741 c 0.273,-0.804 1.076,-1.79 1.857,-2.746 0.879,-1.078 1.047,-3.095 1.291,-4.048 0.162,-0.64 0.006,-1.629 -0.146,-2.584 -0.123,-0.77 -0.25,-1.568 -0.182,-2.068 0.076,-0.547 0.246,-1.228 0.475,-1.97 0.746,0.543 3.721,3.199 1.039,9.273 -0.203,0.136 -0.402,0.254 -0.584,0.332 -0.832,0.358 -1.16,0.918 -1.479,1.46 -0.35,0.6 0.029,2.123 -1.055,2.584 -0.728,0.313 -1.099,-0.071 -1.216,-0.233 z"
       id="SvgjsPath2909" />
  </g>
  <g
     style="filter:url(#filter4674)"
     id="svga-group-faceshape-wrap"
     transform="matrix(2.5499984,0,0,2.5499984,44.028828,52.135383)">
    <g
       id="svga-group-faceshape-single">
      <path
         style="opacity:1;fill:#f0c7b1;stroke:none"
         inkscape:connector-curvature="0"
         stroke-width="none"
         d="m 158.785,78.006 h -0.005 c -0.01,0.046 -12.197,40.27 -15.879,52.418 -0.715,2.358 -1.931,4.551 -3.556,6.386 -6.375,7.194 -23.768,25.057 -39.324,25.057 -15.849,0 -33.591,-19.045 -39.708,-26.214 -1.442,-1.688 -2.507,-3.633 -3.172,-5.765 C 53.534,118.337 41.015,78.24 41.004,78.194 H 41.003 C 39.705,73.202 39.009,67.963 39.001,62.56 38.949,28.536 66.155,0.92 99.773,0.867 c 33.621,-0.053 60.913,27.476 60.964,61.499 0.009,5.403 -0.669,10.644 -1.952,15.64 z"
         id="SvgjsPath3040" />
      <path
         style="opacity:1;fill:#e8b9a0;stroke:none"
         inkscape:connector-curvature="0"
         stroke-width="none"
         d="m 132.168,10.26 c 14.31,11.135 23.671,29.457 23.699,50.208 0.009,5.404 -0.615,10.645 -1.796,15.641 h -0.004 c -0.009,0.046 -11.223,40.27 -14.608,52.417 -0.658,2.358 -1.776,4.551 -3.271,6.385 -5.865,7.195 -21.866,25.059 -36.178,25.059 -14.582,0 -30.904,-19.047 -36.531,-26.215 -1.327,-1.689 -2.306,-3.633 -2.918,-5.764 C 57.243,116.439 45.725,76.342 45.715,76.296 H 45.714 C 44.52,71.304 43.88,66.065 43.872,60.662 43.843,39.835 53.22,21.423 67.585,10.25 50.392,21.159 38.967,40.508 39.001,62.56 c 0.008,5.403 0.704,10.643 2.002,15.634 h 10e-4 c 0.01,0.046 12.53,40.143 16.137,51.694 0.666,2.132 1.73,4.076 3.172,5.765 6.116,7.169 23.858,26.214 39.708,26.214 15.557,0 32.949,-17.862 39.324,-25.057 1.625,-1.835 2.841,-4.027 3.556,-6.386 3.682,-12.148 15.869,-52.372 15.879,-52.418 h 0.005 c 1.283,-4.997 1.961,-10.237 1.952,-15.641 -0.033,-21.976 -11.44,-41.23 -28.569,-52.105 z"
         id="SvgjsPath3041" />
      <path
         style="opacity:1;fill:none;stroke:#c27b55;stroke-width:1.5"
         inkscape:connector-curvature="0"
         d="m 158.785,78.006 h -0.005 c -0.01,0.046 -12.197,40.27 -15.879,52.418 -0.715,2.358 -1.931,4.551 -3.556,6.386 -6.375,7.194 -23.768,25.057 -39.324,25.057 -15.849,0 -33.591,-19.045 -39.708,-26.214 -1.442,-1.688 -2.507,-3.633 -3.172,-5.765 C 53.534,118.337 41.015,78.24 41.004,78.194 H 41.003 C 39.705,73.202 39.009,67.963 39.001,62.56 38.949,28.536 66.155,0.92 99.773,0.867 c 33.621,-0.053 60.913,27.476 60.964,61.499 0.009,5.403 -0.669,10.644 -1.952,15.64 z"
         id="SvgjsPath3042" />
    </g>
  </g>
  <g
     style="filter:url(#filter4674)"
     id="svga-group-nose-single"
     transform="matrix(2.5499984,0,0,2.5499984,44.028828,52.135383)">
    <path
       style="opacity:1;fill:#e1ac8f;stroke:none"
       inkscape:connector-curvature="0"
       stroke-width="none"
       d="m 91.115,115.499 c -0.878,2.064 5.934,4.292 8.519,4.429 2.8,0.147 10.646,-2.9 9.316,-4.992 -1.399,-2.195 -6.643,-0.286 -8.906,-0.286 -2.252,-0.001 -7.753,-1.905 -8.929,0.849 z"
       id="SvgjsPath3023" />
    <path
       style="opacity:1;fill:#c27b55;stroke:none"
       inkscape:connector-curvature="0"
       stroke-width="none"
       d="m 101.857,117.058 c -0.23,-0.759 1.876,-1.584 2.657,-1.694 1.101,-0.16 3.36,0.802 3.158,1.592 -0.184,0.698 -2.148,-0.533 -2.86,-0.429 -0.734,0.107 -2.737,1.242 -2.955,0.531 z m -6.883,-0.247 c 0.968,0 2.404,0.623 2.668,0.074 0.315,-0.655 -2.139,-1.461 -2.86,-1.372 -0.596,0.07 -2.733,1.315 -2.439,1.839 0.274,0.481 1.355,-0.541 2.631,-0.541 z"
       id="SvgjsPath3024" />
    <path
       style="opacity:0.2;fill:#fff5ef;stroke:none"
       inkscape:connector-curvature="0"
       stroke-width="none"
       d="m 100.089,111.999 c 0.607,0 1.742,-0.74 1.792,-2.23 0.201,-6.008 -0.956,-23.833 -1.792,-23.77 -0.78,0.059 -2.267,17.637 -1.948,23.77 0.079,1.502 1.263,2.23 1.948,2.23 z"
       id="SvgjsPath3025" />
  </g>
  <g
     style="filter:url(#filter4674)"
     id="svga-group-beardwrap"
     transform="matrix(2.5499984,0,0,2.5499984,44.028828,52.135383)">
    <g
       id="svga-group-beard-single">
      <path
         style="opacity:1;fill:#2a232b"
         inkscape:connector-curvature="0"
         stroke-width="none"
         d="M 100,18.13 Z"
         id="SvgjsPath3021" />
    </g>
  </g>
  <g
     style="filter:url(#filter4674)"
     id="svga-group-mustache-single"
     transform="matrix(2.5499984,0,0,2.5499984,44.028828,52.135383)">
    <path
       style="opacity:1;fill:#2a232b"
       inkscape:connector-curvature="0"
       stroke-width="none"
       d="M 100,18.13 Z"
       id="SvgjsPath3019" />
  </g>
  <g
     style="filter:url(#filter4674)"
     id="svga-group-hair-front"
     transform="matrix(2.5499984,0,0,2.5499984,44.028828,52.135383)">
    <path
       style="opacity:1;fill:#2a232b"
       inkscape:connector-curvature="0"
       stroke-width="none"
       d="M 158.43,41.325 C 140,-4.765 100,0.405 100,0.405 c 0,0 -40,-5.169 -58.43,40.92 -9.245,23.12 2.158,50.324 2.158,50.324 h 5.826 C 44.46,69.897 50.35,73.987 50.73,69.927 c 0.118,-1.255 -0.3,-3.367 -0.421,-4.622 -0.592,-6.112 1.982,-18.029 5.245,-23.173 1.603,-2.526 5.369,-6.659 8.174,-7.699 9.97,-3.694 20.044,0.715 22.854,1.421 4.461,1.12 22.373,1.12 26.836,0 3.343,-0.839 13.182,-4.905 22.854,-1.321 2.806,1.04 6.871,4.972 8.474,7.499 3.263,5.144 5.537,16.16 4.945,22.272 -0.121,1.255 -0.539,4.367 -0.422,5.623 0.107,1.147 2.617,3.689 2.898,4.807 1.16,4.612 -1.722,16.915 -1.722,16.915 h 5.825 c 10e-4,0 11.406,-27.204 2.16,-50.324 z"
       id="SvgjsPath2904" />
    <path
       style="opacity:1;fill:#000000"
       inkscape:connector-curvature="0"
       stroke-width="none"
       d="M 154.938,31.163 C 136.178,-3.114 101.979,-0.631 100,-0.455 98.021,-0.631 63.823,-3.114 45.062,31.163 30.57,57.641 41.57,88.137 42.907,91.612 42.983,91.809 44.483,91.65 44.483,91.65 44.477,91.635 44.379,91.258 44.317,91.1 43.108,87.98 32.128,57.92 46.378,31.884 65.111,-2.342 99.595,1.007 99.94,1.046 l 0.06,-0.542 0.06,0.542 c 0.345,-0.039 34.829,-3.388 53.563,30.837 14.563,26.61 2.773,57.423 1.996,59.383 -0.021,0.055 -0.107,0.375 -0.111,0.383 0,0 1.506,0.169 1.575,-0.011 1.291,-3.344 12.384,-33.929 -2.145,-60.475 z"
       id="SvgjsPath2905" />
  </g>
  <g
     style="filter:url(#filter4674)"
     id="svga-group-glasses-single"
     transform="matrix(2.5499984,0,0,2.5499984,44.028828,52.135383)">
    <path
       style="opacity:1;fill:#26120b"
       inkscape:connector-curvature="0"
       stroke-width="none"
       d="M 100,18.13 Z"
       id="SvgjsPath3012" />
  </g>
  <rect
     style="display:none;opacity:0.5;fill:#ecf0f1;filter:url(#filter4674)"
     y="185"
     x="0"
     height="15"
     width="200"
     id="SvgjsRect1036"
     transform="scale(3)" />
  <text
     y="185"
     x="100"
     font-weight="400"
     font-size="0.84em"
     style="font-weight:400;font-size:10.07999992px;font-family:Roboto, 'Helvetica Neue', Helvetica, Arial, sans-serif;text-anchor:middle;display:none;fill:#000000;filter:url(#filter4674)"
     id="SvgjsText1037"
     transform="scale(3)">
    <tspan
       style="font-weight:400;font-size:8.46719933px;font-family:Roboto, 'Helvetica Neue', Helvetica, Arial, sans-serif;text-anchor:middle"
       x="100"
       dy="1.2em"
       id="SvgjsTspan1038">Created on AvatarMaker.com</tspan>
  </text>
  <defs
     id="SvgjsDefs1001">
    <radialGradient
       id="SvgjsRadialGradient2886"
       cx="100"
       cy="114"
       r="41"
       gradientUnits="userSpaceOnUse"
       class="svga-on-canvas-facehighlight-gradient-single-0">
      <stop
         id="SvgjsStop2887"
         stop-opacity="0.5"
         stop-color="#ffe4d6"
         offset="0" />
      <stop
         id="SvgjsStop2888"
         stop-opacity="0"
         stop-color="#f0c7b1"
         offset="0.9" />
    </radialGradient>
    <radialGradient
       id="SvgjsRadialGradient2890"
       cx="100"
       cy="54"
       r="37"
       gradientUnits="userSpaceOnUse"
       class="svga-on-canvas-facehighlight-gradient-single-1">
      <stop
         id="SvgjsStop2891"
         stop-opacity="0.5"
         stop-color="#ffe4d6"
         offset="0" />
      <stop
         id="SvgjsStop2892"
         stop-opacity="0"
         stop-color="#f0c7b1"
         offset="0.9" />
    </radialGradient>
    <radialGradient
       id="SvgjsRadialGradient2913"
       cx="129.041"
       cy="83.945"
       r="15.117"
       gradientTransform="matrix(-0.9945,0.1042,0.1042,0.9945,192.8281,-12.4633)"
       gradientUnits="userSpaceOnUse"
       class="svga-on-canvas-eyesback-gradient-left-0">
      <stop
         id="SvgjsStop2914"
         stop-opacity="1"
         stop-color="#ffffff"
         offset="0" />
      <stop
         id="SvgjsStop2915"
         stop-opacity="1"
         stop-color="#fcfdfd"
         offset="0.315" />
      <stop
         id="SvgjsStop2916"
         stop-opacity="1"
         stop-color="#f4f7f8"
         offset="0.504" />
      <stop
         id="SvgjsStop2917"
         stop-opacity="1"
         stop-color="#e5ecef"
         offset="0.66" />
      <stop
         id="SvgjsStop2918"
         stop-opacity="1"
         stop-color="#d8e2e7"
         offset="0.76" />
    </radialGradient>
    <radialGradient
       id="SvgjsRadialGradient2920"
       cx="128.643"
       cy="83.986"
       r="15.116"
       gradientTransform="matrix(0.9945,0.1042,-0.1042,0.9945,7.1738,-12.4633)"
       gradientUnits="userSpaceOnUse"
       class="svga-on-canvas-eyesback-gradient-right-0">
      <stop
         id="SvgjsStop2921"
         stop-opacity="1"
         stop-color="#ffffff"
         offset="0" />
      <stop
         id="SvgjsStop2922"
         stop-opacity="1"
         stop-color="#fcfdfd"
         offset="0.316" />
      <stop
         id="SvgjsStop2923"
         stop-opacity="1"
         stop-color="#f4f7f8"
         offset="0.505" />
      <stop
         id="SvgjsStop2924"
         stop-opacity="1"
         stop-color="#e5ecef"
         offset="0.661" />
      <stop
         id="SvgjsStop2925"
         stop-opacity="1"
         stop-color="#d8e2e7"
         offset="0.76" />
    </radialGradient>
    <radialGradient
       id="SvgjsRadialGradient2928"
       cx="-568.659"
       cy="-521.042"
       r="59.751"
       gradientTransform="matrix(0.096,-0.0248,0.0245,0.0961,141.2814,119.9893)"
       gradientUnits="userSpaceOnUse"
       class="svga-on-canvas-eyesiris-gradient-left-1">
      <stop
         id="SvgjsStop2929"
         stop-opacity="1"
         stop-color="#ffffff"
         offset="0" />
      <stop
         id="SvgjsStop2930"
         stop-opacity="0"
         stop-color="#ffffff"
         offset="1" />
    </radialGradient>
    <radialGradient
       id="SvgjsRadialGradient2932"
       cx="-582.838"
       cy="-519.099"
       r="59.745"
       gradientTransform="matrix(0.0991,8.856319e-4,-0.0011,0.0991,131.1134,135.9855)"
       gradientUnits="userSpaceOnUse"
       class="svga-on-canvas-eyesiris-gradient-left-2">
      <stop
         id="SvgjsStop2933"
         stop-opacity="1"
         stop-color="#ffffff"
         offset="0" />
      <stop
         id="SvgjsStop2934"
         stop-opacity="0"
         stop-color="#ffffff"
         offset="1" />
    </radialGradient>
    <linearGradient
       id="SvgjsLinearGradient2938"
       x1="122.67"
       y1="88.268"
       x2="123.606"
       y2="87.152"
       gradientTransform="translate(-52)"
       gradientUnits="userSpaceOnUse"
       class="svga-on-canvas-eyesiris-gradient-left-5">
      <stop
         id="SvgjsStop2939"
         stop-opacity="1"
         stop-color="#ffffff"
         offset="0" />
      <stop
         id="SvgjsStop2940"
         stop-opacity="0"
         stop-color="#ffffff"
         offset="1" />
    </linearGradient>
    <linearGradient
       id="SvgjsLinearGradient2942"
       x1="127.212"
       y1="82.296"
       x2="126.463"
       y2="83.189"
       gradientTransform="translate(-52)"
       gradientUnits="userSpaceOnUse"
       class="svga-on-canvas-eyesiris-gradient-left-6">
      <stop
         id="SvgjsStop2943"
         stop-opacity="1"
         stop-color="#ffffff"
         offset="0" />
      <stop
         id="SvgjsStop2944"
         stop-opacity="0"
         stop-color="#ffffff"
         offset="1" />
    </linearGradient>
    <linearGradient
       id="SvgjsLinearGradient2946"
       x1="129.636"
       y1="79.822"
       x2="127.91"
       y2="81.879"
       gradientTransform="translate(-52)"
       gradientUnits="userSpaceOnUse"
       class="svga-on-canvas-eyesiris-gradient-left-7">
      <stop
         id="SvgjsStop2947"
         stop-opacity="1"
         stop-color="#ffffff"
         offset="0" />
      <stop
         id="SvgjsStop2948"
         stop-opacity="0"
         stop-color="#ffffff"
         offset="1" />
    </linearGradient>
    <radialGradient
       id="SvgjsRadialGradient2951"
       cx="-568.654"
       cy="-521.042"
       r="59.752"
       gradientTransform="matrix(0.096,-0.0248,0.0245,0.0961,193.2804,119.9894)"
       gradientUnits="userSpaceOnUse"
       class="svga-on-canvas-eyesiris-gradient-right-1">
      <stop
         id="SvgjsStop2952"
         stop-opacity="1"
         stop-color="#ffffff"
         offset="0" />
      <stop
         id="SvgjsStop2953"
         stop-opacity="0"
         stop-color="#ffffff"
         offset="1" />
    </radialGradient>
    <radialGradient
       id="SvgjsRadialGradient2955"
       cx="-582.833"
       cy="-519.102"
       r="59.747"
       gradientTransform="matrix(0.0991,8.856319e-4,-0.0011,0.0991,183.1126,135.9856)"
       gradientUnits="userSpaceOnUse"
       class="svga-on-canvas-eyesiris-gradient-right-2">
      <stop
         id="SvgjsStop2956"
         stop-opacity="1"
         stop-color="#ffffff"
         offset="0" />
      <stop
         id="SvgjsStop2957"
         stop-opacity="0"
         stop-color="#ffffff"
         offset="1" />
    </radialGradient>
    <linearGradient
       id="SvgjsLinearGradient2961"
       x1="122.67"
       y1="88.268"
       x2="123.606"
       y2="87.152"
       gradientUnits="userSpaceOnUse"
       class="svga-on-canvas-eyesiris-gradient-right-5">
      <stop
         id="SvgjsStop2962"
         stop-opacity="1"
         stop-color="#ffffff"
         offset="0" />
      <stop
         id="SvgjsStop2963"
         stop-opacity="0"
         stop-color="#ffffff"
         offset="1" />
    </linearGradient>
    <linearGradient
       id="SvgjsLinearGradient2965"
       x1="127.212"
       y1="82.296"
       x2="126.463"
       y2="83.189"
       gradientUnits="userSpaceOnUse"
       class="svga-on-canvas-eyesiris-gradient-right-6">
      <stop
         id="SvgjsStop2966"
         stop-opacity="1"
         stop-color="#ffffff"
         offset="0" />
      <stop
         id="SvgjsStop2967"
         stop-opacity="0"
         stop-color="#ffffff"
         offset="1" />
    </linearGradient>
    <linearGradient
       id="SvgjsLinearGradient2969"
       x1="129.636"
       y1="79.822"
       x2="127.91"
       y2="81.879"
       gradientUnits="userSpaceOnUse"
       class="svga-on-canvas-eyesiris-gradient-right-7">
      <stop
         id="SvgjsStop2970"
         stop-opacity="1"
         stop-color="#ffffff"
         offset="0" />
      <stop
         id="SvgjsStop2971"
         stop-opacity="0"
         stop-color="#ffffff"
         offset="1" />
    </linearGradient>
    <radialGradient
       id="SvgjsRadialGradient2973"
       cx="129.041"
       cy="83.945"
       r="15.117"
       gradientTransform="matrix(-0.9945 0.1042 0.1042 0.9945 192.8281 -12.4633)"
       gradientUnits="userSpaceOnUse"
       class="svga-on-canvas-eyesfront-gradient-left-0">
      <stop
         id="SvgjsStop2974"
         stop-opacity="1"
         stop-color="#ffffff"
         offset="0" />
      <stop
         id="SvgjsStop2975"
         stop-opacity="1"
         stop-color="#fcfdfd"
         offset="0.316" />
      <stop
         id="SvgjsStop2976"
         stop-opacity="1"
         stop-color="#f4f7f8"
         offset="0.505" />
      <stop
         id="SvgjsStop2977"
         stop-opacity="1"
         stop-color="#e5ecef"
         offset="0.661" />
      <stop
         id="SvgjsStop2978"
         stop-opacity="1"
         stop-color="#d8e2e7"
         offset="0.76" />
    </radialGradient>
    <radialGradient
       id="SvgjsRadialGradient2982"
       cx="121.986"
       cy="82.496"
       fx="133.239"
       fy="82.527"
       r="16.003"
       gradientTransform="matrix(0.9998,0.0208,0.0166,-0.7998,-45.3195,145.9395)"
       gradientUnits="userSpaceOnUse"
       class="svga-on-canvas-eyesfront-gradient-left-3">
      <stop
         id="SvgjsStop2983"
         stop-opacity="1"
         stop-color="#e1ac8f"
         offset="0" />
      <stop
         id="SvgjsStop2984"
         stop-opacity="0.3"
         stop-color="#e1ac8f"
         offset="0.7" />
      <stop
         id="SvgjsStop2985"
         stop-opacity="0"
         stop-color="#f0c7b1"
         offset="1" />
    </radialGradient>
    <radialGradient
       id="SvgjsRadialGradient2987"
       cx="68.931"
       cy="105.995"
       r="29.524"
       gradientTransform="matrix(1.0336,0,0,1.0336,-1.6796,1.3127)"
       gradientUnits="userSpaceOnUse"
       class="svga-on-canvas-eyesfront-gradient-left-4">
      <stop
         id="SvgjsStop2988"
         stop-opacity="0"
         stop-color="#000000"
         offset="0.95" />
      <stop
         id="SvgjsStop2989"
         stop-opacity="0.2"
         stop-color="#000000"
         offset="1" />
    </radialGradient>
    <radialGradient
       id="SvgjsRadialGradient2993"
       cx="128.643"
       cy="83.986"
       r="15.116"
       gradientTransform="matrix(0.9945 0.1042 -0.1042 0.9945 7.1738 -12.4633)"
       gradientUnits="userSpaceOnUse"
       class="svga-on-canvas-eyesfront-gradient-right-0">
      <stop
         id="SvgjsStop2994"
         stop-opacity="1"
         stop-color="#ffffff"
         offset="0" />
      <stop
         id="SvgjsStop2995"
         stop-opacity="1"
         stop-color="#fcfdfd"
         offset="0.316" />
      <stop
         id="SvgjsStop2996"
         stop-opacity="1"
         stop-color="#f4f7f8"
         offset="0.505" />
      <stop
         id="SvgjsStop2997"
         stop-opacity="1"
         stop-color="#e5ecef"
         offset="0.661" />
      <stop
         id="SvgjsStop2998"
         stop-opacity="1"
         stop-color="#d8e2e7"
         offset="0.76" />
    </radialGradient>
    <radialGradient
       id="SvgjsRadialGradient3002"
       cx="121.587"
       cy="82.496"
       fx="132.839"
       fy="82.527"
       r="16.003"
       gradientTransform="matrix(-0.9998,0.0208,-0.0166,-0.7998,244.5208,145.9478)"
       gradientUnits="userSpaceOnUse"
       class="svga-on-canvas-eyesfront-gradient-right-3">
      <stop
         id="SvgjsStop3003"
         stop-opacity="1"
         stop-color="#e1ac8f"
         offset="0" />
      <stop
         id="SvgjsStop3004"
         stop-opacity="0.3"
         stop-color="#e1ac8f"
         offset="0.7" />
      <stop
         id="SvgjsStop3005"
         stop-opacity="0"
         stop-color="#f0c7b1"
         offset="1" />
    </radialGradient>
    <radialGradient
       id="SvgjsRadialGradient3007"
       cx="69.316"
       cy="105.995"
       r="29.524"
       gradientTransform="matrix(-1.0336,0,0,1.0336,201.6796,1.3127)"
       gradientUnits="userSpaceOnUse"
       class="svga-on-canvas-eyesfront-gradient-right-4">
      <stop
         id="SvgjsStop3008"
         stop-opacity="0"
         stop-color="#000000"
         offset="0.95" />
      <stop
         id="SvgjsStop3009"
         stop-opacity="0.2"
         stop-color="#000000"
         offset="1" />
    </radialGradient>
    <linearGradient
       id="SvgjsLinearGradient3015"
       x1="100"
       y1="142"
       x2="100"
       y2="139"
       gradientUnits="userSpaceOnUse"
       class="svga-on-canvas-mouth-gradient-single-0">
      <stop
         id="SvgjsStop3016"
         stop-opacity="1"
         stop-color="#e8b9a0"
         offset="0.1" />
      <stop
         id="SvgjsStop3017"
         stop-opacity="1"
         stop-color="#e1ac8f"
         offset="1" />
    </linearGradient>
    <linearGradient
       id="SvgjsLinearGradient3044"
       x1="100"
       y1="171"
       x2="100"
       y2="131"
       gradientUnits="userSpaceOnUse"
       class="svga-on-canvas-chinshadow-gradient-single-0">
      <stop
         id="SvgjsStop3045"
         stop-opacity="0.8"
         stop-color="#e1ac8f"
         offset="0" />
      <stop
         id="SvgjsStop3046"
         stop-opacity="1"
         stop-color="#c27b55"
         offset="0.7" />
    </linearGradient>
    <filter
       style="color-interpolation-filters:sRGB;"
       inkscape:label="Greyscale"
       id="filter4674">
      <feColorMatrix
         values="1 0 0 0 0 0 1 0 0 0 0 0 1 0 0 0 0 0 1 0"
         id="feColorMatrix4672"
         result="fbSourceGraphic" />
      <feColorMatrix
         result="fbSourceGraphicAlpha"
         in="fbSourceGraphic"
         values="0 0 0 -1 0 0 0 0 -1 0 0 0 0 -1 0 0 0 0 1 0"
         id="feColorMatrix4680" />
      <feColorMatrix
         id="feColorMatrix4682"
         values="1 0 0 0 0 0 1 0 0 0 0 0 1 0 0 0 0 0 1 0"
         in="fbSourceGraphic"
         result="fbSourceGraphic" />
      <feColorMatrix
         result="fbSourceGraphicAlpha"
         in="fbSourceGraphic"
         values="0 0 0 -1 0 0 0 0 -1 0 0 0 0 -1 0 0 0 0 1 0"
         id="feColorMatrix4684" />
      <feColorMatrix
         id="feColorMatrix4686"
         values="0.21 0.72 0.072 0 0 0.21 0.72 0.072 0 0 0.21 0.72 0.072 0 0 0 0 0 1 0 "
         in="fbSourceGraphic" />
    </filter>
  </defs>
</svg>
